<?xml version="1.0" standalone="no"?><!DOCTYPE svg PUBLIC "-//W3C//DTD SVG 1.1//EN" "http://www.w3.org/Graphics/SVG/1.1/DTD/svg11.dtd"><svg t="1526303302089" class="icon" style="" viewBox="0 0 1024 1024" version="1.1" xmlns="http://www.w3.org/2000/svg" p-id="1073" xmlns:xlink="http://www.w3.org/1999/xlink" width="200" height="200"><defs><style type="text/css"></style></defs><path d="M622.293333 808.32a21.333333 21.333333 0 0 1-18.56-10.666667l-256-443.306666a22.4 22.4 0 0 1-2.133333-16.213334 21.333333 21.333333 0 0 1 10.026667-13.013333l184.746666-106.666667a21.333333 21.333333 0 0 1 29.226667 7.893334l256 443.306666a22.4 22.4 0 0 1 2.133333 16.213334 21.333333 21.333333 0 0 1-10.026666 13.013333l-184.746667 106.666667a21.333333 21.333333 0 0 1-10.666667 2.773333zM395.52 351.36l234.666667 406.613333 147.626666-85.333333-234.666666-406.613333z" fill="#4787FF" p-id="1074"></path><path d="M512 446.72a64 64 0 1 1 32-8.533333 64 64 0 0 1-32 8.533333z m0-85.333333a21.333333 21.333333 0 1 0 10.666667 39.68 21.333333 21.333333 0 0 0 7.893333-29.013334 21.333333 21.333333 0 0 0-18.56-10.666666z" fill="#FF5964" p-id="1075"></path><path d="M401.706667 808.32a21.333333 21.333333 0 0 1-10.666667-2.773333l-184.746667-106.666667a21.333333 21.333333 0 0 1-10.026666-13.013333 22.4 22.4 0 0 1 2.133333-16.213334l171.946667-297.6a21.333333 21.333333 0 1 1 36.906666 21.333334l-161.066666 279.253333 147.626666 85.333333 38.4-66.56a21.333333 21.333333 0 1 1 37.12 21.333334l-49.066666 85.333333a21.333333 21.333333 0 0 1-18.56 10.24z" fill="#4787FF" p-id="1076"></path></svg>